<svg xmlns="http://www.w3.org/2000/svg" width="48" height="48" fill="none" viewBox="0 0 48 48"><rect width="48" height="48" fill="#fff" fill-opacity=".01"/><path fill="#2F88FF" stroke="#000" stroke-linecap="round" stroke-linejoin="round" stroke-width="4" d="M8 12C8 10.3431 9.34315 9 11 9H37C38.6569 9 40 10.3431 40 12V23H8V12Z"/><path stroke="#000" stroke-linecap="round" stroke-linejoin="round" stroke-width="4" d="M6 35V39"/><path stroke="#000" stroke-linecap="round" stroke-linejoin="round" stroke-width="4" d="M42 35V39"/><path stroke="#000" stroke-linecap="round" stroke-linejoin="round" stroke-width="4" d="M23 23V21C23 19.3431 21.6569 18 20 18H14C12.3431 18 11 19.3431 11 21V23"/><path stroke="#000" stroke-linecap="round" stroke-linejoin="round" stroke-width="4" d="M37 23V21C37 19.3431 35.6569 18 34 18H28C26.3431 18 25 19.3431 25 21V23"/><path fill="#2F88FF" stroke="#000" stroke-linecap="round" stroke-linejoin="round" stroke-width="4" d="M4 26C4 24.3431 5.34315 23 7 23H41C42.6569 23 44 24.3431 44 26V35H4V26Z"/></svg>