<svg xmlns="http://www.w3.org/2000/svg" width="48" height="48" fill="none" viewBox="0 0 48 48"><rect width="48" height="48" fill="#fff" fill-opacity=".01"/><path stroke="#000" stroke-linecap="round" stroke-linejoin="round" stroke-width="4" d="M19.193 21.5438L21.512 40.0962C21.7711 42.1691 20.1548 44 18.0659 44C16.3144 44 14.837 42.6958 14.6197 40.9578L12.2461 21.9689"/><path fill="#2F88FF" stroke="#000" stroke-linecap="round" stroke-linejoin="round" stroke-width="4" d="M13 4C8.02944 4 4 8.02944 4 13C4 17.7167 7.62831 21.5859 12.2461 21.9689C12.4947 21.9895 12.7461 22 13 22C14.578 22 16.7395 21.8249 19.193 21.5438L31.5965 19.5219L44 17.5V8.5L28.5 6.25L13 4Z"/><path stroke="#fff" stroke-linecap="round" stroke-linejoin="round" stroke-width="4" d="M37 8.20056V17.7995"/><path stroke="#000" stroke-linecap="round" stroke-linejoin="round" stroke-width="4" d="M43.9999 17.5L31.5964 19.5219"/><path stroke="#000" stroke-linecap="round" stroke-linejoin="round" stroke-width="4" d="M44 8.5L28.5 6.25"/><path fill="#43CCF8" stroke="#fff" stroke-linecap="round" stroke-linejoin="round" stroke-width="4" d="M16 13C16 14.6569 14.6569 16 13 16C11.3431 16 10 14.6569 10 13C10 11.3431 11.3431 10 13 10C14.6569 10 16 11.3431 16 13Z"/></svg>