<svg xmlns="http://www.w3.org/2000/svg" width="48" height="48" fill="none" viewBox="0 0 48 48"><rect width="48" height="48" fill="#fff" fill-opacity=".01"/><path fill="#2F88FF" stroke="#000" stroke-linecap="round" stroke-linejoin="round" stroke-width="4" d="M27 20V22H9V20C9 16.6863 13.0294 14 18 14C22.9706 14 27 16.6863 27 20Z"/><path stroke="#000" stroke-linecap="round" stroke-linejoin="round" stroke-width="4" d="M42 44V12.5C42 7.80558 36.6274 4 30 4C23.3726 4 18 7.80558 18 12.5V14"/><path stroke="#000" stroke-linecap="round" stroke-linejoin="round" stroke-width="4" d="M18 29L18 28"/><path stroke="#000" stroke-linecap="round" stroke-linejoin="round" stroke-width="4" d="M10.1709 28.0303L9.82892 28.97"/><path stroke="#000" stroke-linecap="round" stroke-linejoin="round" stroke-width="4" d="M4.17094 43.0303L3.82892 43.97"/><path stroke="#000" stroke-linecap="round" stroke-linejoin="round" stroke-width="4" d="M18 44L18 43"/><path stroke="#000" stroke-linecap="round" stroke-linejoin="round" stroke-width="4" d="M18 37L18 35"/><path stroke="#000" stroke-linecap="round" stroke-linejoin="round" stroke-width="4" d="M7.342 35.0603L6.65796 36.9397"/></svg>