<svg xmlns="http://www.w3.org/2000/svg" width="48" height="48" fill="none" viewBox="0 0 48 48"><rect width="48" height="48" fill="#fff" fill-opacity=".01"/><path stroke="#000" stroke-linecap="round" stroke-linejoin="round" stroke-width="4" d="M10 28V35H18"/><path fill="#2F88FF" stroke="#000" stroke-linecap="round" stroke-linejoin="round" stroke-width="4" d="M18 28H42V42H18V35V28Z"/><line x1="6" x2="6" y1="13.5" y2="12.5" stroke="#000" stroke-linecap="round" stroke-linejoin="round" stroke-width="4"/><line x1="6" x2="6" y1="20" y2="19" stroke="#000" stroke-linecap="round" stroke-linejoin="round" stroke-width="4"/><line x1="6" x2="6" y1="7" y2="6" stroke="#000" stroke-linecap="round" stroke-linejoin="round" stroke-width="4"/><line x1="32" x2="32" y1="13.5" y2="12.5" stroke="#000" stroke-linecap="round" stroke-linejoin="round" stroke-width="4"/><line x1="32" x2="32" y1="20" y2="19" stroke="#000" stroke-linecap="round" stroke-linejoin="round" stroke-width="4"/><line x1="32" x2="32" y1="7" y2="6" stroke="#000" stroke-linecap="round" stroke-linejoin="round" stroke-width="4"/><line x1="32" x2="31" y1="20" y2="20" stroke="#000" stroke-linecap="round" stroke-linejoin="round" stroke-width="4"/><line x1="7" x2="6" y1="20" y2="20" stroke="#000" stroke-linecap="round" stroke-linejoin="round" stroke-width="4"/><line x1="7" x2="6" y1="6" y2="6" stroke="#000" stroke-linecap="round" stroke-linejoin="round" stroke-width="4"/><line x1="13" x2="12" y1="6" y2="6" stroke="#000" stroke-linecap="round" stroke-linejoin="round" stroke-width="4"/><line x1="19.5" x2="18.5" y1="6" y2="6" stroke="#000" stroke-linecap="round" stroke-linejoin="round" stroke-width="4"/><line x1="19.5" x2="18.5" y1="20" y2="20" stroke="#000" stroke-linecap="round" stroke-linejoin="round" stroke-width="4"/><line x1="26" x2="25" y1="6" y2="6" stroke="#000" stroke-linecap="round" stroke-linejoin="round" stroke-width="4"/><line x1="13" x2="12" y1="20" y2="20" stroke="#000" stroke-linecap="round" stroke-linejoin="round" stroke-width="4"/><line x1="26" x2="25" y1="20" y2="20" stroke="#000" stroke-linecap="round" stroke-linejoin="round" stroke-width="4"/><line x1="32" x2="31" y1="6" y2="6" stroke="#000" stroke-linecap="round" stroke-linejoin="round" stroke-width="4"/></svg>