<svg xmlns="http://www.w3.org/2000/svg" width="48" height="48" fill="none" viewBox="0 0 48 48"><rect width="48" height="48" fill="#fff" fill-opacity=".01"/><path stroke="#000" stroke-linecap="round" stroke-linejoin="round" stroke-width="4" d="M24 30V24"/><path fill="#2F88FF" stroke="#000" stroke-linecap="round" stroke-linejoin="round" stroke-width="4" d="M6 30H24H42V42H6V30Z"/><line x1="6" x2="6" y1="12.5" y2="11.5" stroke="#000" stroke-linecap="round" stroke-linejoin="round" stroke-width="4"/><line x1="6" x2="6" y1="18" y2="17" stroke="#000" stroke-linecap="round" stroke-linejoin="round" stroke-width="4"/><line x1="6" x2="6" y1="7" y2="6" stroke="#000" stroke-linecap="round" stroke-linejoin="round" stroke-width="4"/><line x1="42" x2="42" y1="12.5" y2="11.5" stroke="#000" stroke-linecap="round" stroke-linejoin="round" stroke-width="4"/><line x1="42" x2="42" y1="18" y2="17" stroke="#000" stroke-linecap="round" stroke-linejoin="round" stroke-width="4"/><line x1="42" x2="42" y1="7" y2="6" stroke="#000" stroke-linecap="round" stroke-linejoin="round" stroke-width="4"/><line x1="42" x2="41" y1="18" y2="18" stroke="#000" stroke-linecap="round" stroke-linejoin="round" stroke-width="4"/><line x1="7" x2="6" y1="18" y2="18" stroke="#000" stroke-linecap="round" stroke-linejoin="round" stroke-width="4"/><line x1="7" x2="6" y1="6" y2="6" stroke="#000" stroke-linecap="round" stroke-linejoin="round" stroke-width="4"/><line x1="14" x2="13" y1="6" y2="6" stroke="#000" stroke-linecap="round" stroke-linejoin="round" stroke-width="4"/><line x1="21" x2="20" y1="6" y2="6" stroke="#000" stroke-linecap="round" stroke-linejoin="round" stroke-width="4"/><line x1="21" x2="20" y1="18" y2="18" stroke="#000" stroke-linecap="round" stroke-linejoin="round" stroke-width="4"/><line x1="28" x2="27" y1="6" y2="6" stroke="#000" stroke-linecap="round" stroke-linejoin="round" stroke-width="4"/><line x1="14" x2="13" y1="18" y2="18" stroke="#000" stroke-linecap="round" stroke-linejoin="round" stroke-width="4"/><line x1="28" x2="27" y1="18" y2="18" stroke="#000" stroke-linecap="round" stroke-linejoin="round" stroke-width="4"/><line x1="35" x2="34" y1="6" y2="6" stroke="#000" stroke-linecap="round" stroke-linejoin="round" stroke-width="4"/><line x1="35" x2="34" y1="18" y2="18" stroke="#000" stroke-linecap="round" stroke-linejoin="round" stroke-width="4"/><line x1="42" x2="41" y1="6" y2="6" stroke="#000" stroke-linecap="round" stroke-linejoin="round" stroke-width="4"/></svg>