<svg xmlns="http://www.w3.org/2000/svg" width="48" height="48" fill="none" viewBox="0 0 48 48"><rect width="48" height="48" fill="#fff" fill-opacity=".01"/><path stroke="#000" stroke-linecap="round" stroke-linejoin="round" stroke-width="4" d="M34 3.99976H44V13.9998M44 33.9998V43.9998H34M14 43.9998H4V33.9998M4 13.9998V3.99976H14"/><path stroke="#000" stroke-width="4" d="M24 39.9998C31.732 39.9998 38 32.8363 38 23.9998C38 15.1632 31.732 7.99976 24 7.99976C16.268 7.99976 10 15.1632 10 23.9998C10 32.8363 16.268 39.9998 24 39.9998Z"/><path stroke="#000" stroke-linecap="round" stroke-width="4" d="M6 24.0081L42 23.9998"/><path stroke="#000" stroke-linecap="round" stroke-width="4" d="M20.0697 32.1057C21.3375 33.0429 22.6476 33.5115 24 33.5115C25.3523 33.5115 26.6983 33.0429 28.0381 32.1057"/></svg>