<svg xmlns="http://www.w3.org/2000/svg" width="48" height="48" fill="none" viewBox="0 0 48 48"><rect width="48" height="48" fill="#fff" fill-opacity=".01"/><path stroke="#000" stroke-linecap="round" stroke-linejoin="round" stroke-width="4" d="M6 8H10"/><path stroke="#000" stroke-linecap="round" stroke-linejoin="round" stroke-width="4" d="M14 16H18"/><path stroke="#000" stroke-linecap="round" stroke-linejoin="round" stroke-width="4" d="M16 6V10"/><path stroke="#000" stroke-linecap="round" stroke-linejoin="round" stroke-width="4" d="M8 14V18"/><path stroke="#000" stroke-linecap="round" stroke-linejoin="round" stroke-width="4" d="M22 8H26"/><path stroke="#000" stroke-linecap="round" stroke-linejoin="round" stroke-width="4" d="M30 16H34"/><path stroke="#000" stroke-linecap="round" stroke-linejoin="round" stroke-width="4" d="M32 6V10"/><path stroke="#000" stroke-linecap="round" stroke-linejoin="round" stroke-width="4" d="M24 14V18"/><path stroke="#000" stroke-linecap="round" stroke-linejoin="round" stroke-width="4" d="M38 8H42"/><path stroke="#000" stroke-linecap="round" stroke-linejoin="round" stroke-width="4" d="M40 14V18"/><path stroke="#000" stroke-linecap="round" stroke-linejoin="round" stroke-width="4" d="M6 24H10"/><path stroke="#000" stroke-linecap="round" stroke-linejoin="round" stroke-width="4" d="M14 32H18"/><path stroke="#000" stroke-linecap="round" stroke-linejoin="round" stroke-width="4" d="M16 22V26"/><path stroke="#000" stroke-linecap="round" stroke-linejoin="round" stroke-width="4" d="M8 30V34"/><path stroke="#000" stroke-linecap="round" stroke-linejoin="round" stroke-width="4" d="M22 24H26"/><path stroke="#000" stroke-linecap="round" stroke-linejoin="round" stroke-width="4" d="M30 32H34"/><path stroke="#000" stroke-linecap="round" stroke-linejoin="round" stroke-width="4" d="M32 22V26"/><path stroke="#000" stroke-linecap="round" stroke-linejoin="round" stroke-width="4" d="M24 30V34"/><path stroke="#000" stroke-linecap="round" stroke-linejoin="round" stroke-width="4" d="M38 24H42"/><path stroke="#000" stroke-linecap="round" stroke-linejoin="round" stroke-width="4" d="M40 30V34"/><path stroke="#000" stroke-linecap="round" stroke-linejoin="round" stroke-width="4" d="M6 40H10"/><path stroke="#000" stroke-linecap="round" stroke-linejoin="round" stroke-width="4" d="M16 38V42"/><path stroke="#000" stroke-linecap="round" stroke-linejoin="round" stroke-width="4" d="M22 40H26"/><path stroke="#000" stroke-linecap="round" stroke-linejoin="round" stroke-width="4" d="M32 38V42"/><path stroke="#000" stroke-linecap="round" stroke-linejoin="round" stroke-width="4" d="M38 40H42"/></svg>