<svg xmlns="http://www.w3.org/2000/svg" width="48" height="48" fill="none" viewBox="0 0 48 48"><rect width="48" height="48" fill="#fff" fill-opacity=".01"/><path stroke="#000" stroke-linecap="round" stroke-linejoin="round" stroke-width="4" d="M24 4V12"/><path stroke="#000" stroke-linecap="round" stroke-linejoin="round" stroke-width="4" d="M38.1421 9.85791L32.4852 15.5148"/><path stroke="#000" stroke-linecap="round" stroke-linejoin="round" stroke-width="4" d="M44 24H36"/><path stroke="#000" stroke-linecap="round" stroke-linejoin="round" stroke-width="4" d="M38.1421 38.1421L32.4852 32.4852"/><path stroke="#000" stroke-linecap="round" stroke-linejoin="round" stroke-width="4" d="M24 44V36"/><path stroke="#000" stroke-linecap="round" stroke-linejoin="round" stroke-width="4" d="M9.85791 38.1421L15.5148 32.4852"/><path stroke="#000" stroke-linecap="round" stroke-linejoin="round" stroke-width="4" d="M4 24H12"/><path stroke="#000" stroke-linecap="round" stroke-linejoin="round" stroke-width="4" d="M9.85791 9.85791L15.5148 15.5148"/><path stroke="#000" stroke-linecap="round" stroke-linejoin="round" stroke-width="4" d="M16.3464 5.52246L17.8772 9.21798"/><path stroke="#000" stroke-linecap="round" stroke-linejoin="round" stroke-width="4" d="M5.52246 16.3462L9.21798 17.8769"/><path stroke="#000" stroke-linecap="round" stroke-linejoin="round" stroke-width="4" d="M5.52246 31.6538L9.21798 30.123"/><path stroke="#000" stroke-linecap="round" stroke-linejoin="round" stroke-width="4" d="M16.3464 42.4777L17.8772 38.7822"/><path stroke="#000" stroke-linecap="round" stroke-linejoin="round" stroke-width="4" d="M31.6538 42.4777L30.123 38.7822"/><path stroke="#000" stroke-linecap="round" stroke-linejoin="round" stroke-width="4" d="M42.4776 31.6538L38.7821 30.123"/><path stroke="#000" stroke-linecap="round" stroke-linejoin="round" stroke-width="4" d="M42.4776 16.3462L38.7821 17.8769"/><path stroke="#000" stroke-linecap="round" stroke-linejoin="round" stroke-width="4" d="M31.6538 5.52246L30.123 9.21798"/></svg>