<svg xmlns="http://www.w3.org/2000/svg" width="48" height="48" fill="none" viewBox="0 0 48 48"><rect width="48" height="48" fill="#fff" fill-opacity=".01" transform="matrix(-1 0 0 1 48 0)"/><path stroke="#000" stroke-linecap="round" stroke-linejoin="round" stroke-width="4" d="M14 6.67578C8.02198 10.1339 4 16.5973 4 24.0001M14 6.67578V14.0001M14 6.67578H6.67564"/><path stroke="#000" stroke-linecap="round" stroke-linejoin="round" stroke-width="4" d="M6.67564 34C10.1337 39.978 16.5972 44 24 44M6.67564 34H14M6.67564 34V41.3244"/><path stroke="#000" stroke-linecap="round" stroke-linejoin="round" stroke-width="4" d="M34 41.3244C39.978 37.8663 44 31.4028 44 24M34 41.3244V34M34 41.3244H41.3244"/><path stroke="#000" stroke-linecap="round" stroke-linejoin="round" stroke-width="4" d="M41.3243 14C37.8662 8.02199 31.4028 4 24 4M41.3243 14H34M41.3243 14V6.67564"/></svg>