<svg xmlns="http://www.w3.org/2000/svg" width="48" height="48" fill="none" viewBox="0 0 48 48"><rect width="48" height="48" fill="#fff" fill-opacity=".01"/><path stroke="#000" stroke-linecap="round" stroke-linejoin="round" stroke-width="4" d="M16 22L10 12L4 22"/><path fill="#2F88FF" fill-rule="evenodd" stroke="#000" stroke-linecap="round" stroke-linejoin="round" stroke-width="4" d="M10 28C13.3137 28 16 25.3137 16 22H4C4 25.3137 6.68629 28 10 28Z" clip-rule="evenodd"/><path stroke="#000" stroke-linecap="round" stroke-linejoin="round" stroke-width="4" d="M44 22L38 12L32 22"/><path fill="#2F88FF" fill-rule="evenodd" stroke="#000" stroke-linecap="round" stroke-linejoin="round" stroke-width="4" d="M38 28C41.3137 28 44 25.3137 44 22H32C32 25.3137 34.6863 28 38 28Z" clip-rule="evenodd"/><path stroke="#000" stroke-linecap="round" stroke-linejoin="round" stroke-width="4" d="M24 6V42"/><path stroke="#000" stroke-linecap="round" stroke-linejoin="round" stroke-width="4" d="M10 12H24H38"/><path stroke="#000" stroke-linecap="round" stroke-linejoin="round" stroke-width="4" d="M10 12H24H38"/><path stroke="#000" stroke-linecap="round" stroke-linejoin="round" stroke-width="4" d="M38 42H24H10"/></svg>