<svg xmlns="http://www.w3.org/2000/svg" width="48" height="48" fill="none" viewBox="0 0 48 48"><rect width="48" height="48" fill="#fff" fill-opacity=".01"/><path stroke="#000" stroke-linecap="round" stroke-linejoin="round" stroke-width="4" d="M43 16V42H5V16V16"/><path fill="#2F88FF" stroke="#000" stroke-linejoin="round" stroke-width="4" d="M5 4H43V16H5V4Z"/><path fill="#fff" fill-rule="evenodd" d="M11 12C12.1046 12 13 11.1046 13 10C13 8.89543 12.1046 8 11 8C9.89543 8 9 8.89543 9 10C9 11.1046 9.89543 12 11 12Z" clip-rule="evenodd"/><path fill="#fff" fill-rule="evenodd" d="M17 12C18.1046 12 19 11.1046 19 10C19 8.89543 18.1046 8 17 8C15.8954 8 15 8.89543 15 10C15 11.1046 15.8954 12 17 12Z" clip-rule="evenodd"/><path fill="#fff" fill-rule="evenodd" d="M23 12C24.1046 12 25 11.1046 25 10C25 8.89543 24.1046 8 23 8C21.8954 8 21 8.89543 21 10C21 11.1046 21.8954 12 23 12Z" clip-rule="evenodd"/></svg>