<svg xmlns="http://www.w3.org/2000/svg" xmlns:xlink="http://www.w3.org/1999/xlink" width="48" height="48" version="1.1" viewBox="0 0 48 48"><title>coupon</title><desc>Created with Sketch.</desc><g id="coupon" fill="none" fill-rule="evenodd" stroke="none" stroke-linejoin="round" stroke-width="1"><rect width="48" height="48" fill="#fff" fill-opacity=".01"/><g id="编组" stroke-width="4" transform="translate(4.000000, 8.000000)"><path id="Combined-Shape" fill="#2F88FF" fill-rule="nonzero" stroke="#000" d="M0,11.3129605 L0,0 L40,0 L40,11.3129605 C37.8814684,12.0679939 36.3636364,14.1052655 36.3636364,16.5 C36.3636364,18.8947345 37.8814684,20.9320061 40,21.6870395 L40,33 L0,33 L0,21.6870395 C2.11853159,20.9320061 3.63636364,18.8947345 3.63636364,16.5 C3.63636364,14.1052655 2.11853159,12.0679939 3.33066907e-16,11.3129605 Z"/><polyline id="Path-359" stroke="#FFF" stroke-linecap="round" points="14.545 6.417 20 11.917 25.455 6.417"/><path id="Path-360" stroke="#FFF" stroke-linecap="round" d="M13.6363636,13.75 L26.3636364,13.75"/><path id="Path-360-Copy" stroke="#FFF" stroke-linecap="round" d="M13.6363636,20.1666667 L26.3636364,20.1666667"/><path id="Path-361" stroke="#FFF" stroke-linecap="round" d="M20,13.75 L20,26.5833333"/></g></g></svg>