<svg xmlns="http://www.w3.org/2000/svg" width="48" height="48" fill="none" viewBox="0 0 48 48"><rect width="48" height="48" fill="#fff" fill-opacity=".01"/><path stroke="#000" stroke-linecap="round" stroke-width="4" d="M12 4H36"/><path fill-rule="evenodd" stroke="#000" stroke-linejoin="round" stroke-width="4" d="M18.019 4V15.0386L6.27443 39.3014C5.48692 40.9283 6.16737 42.8855 7.79427 43.673C8.23882 43.8882 8.7263 44 9.22019 44H38.7875C40.595 44 42.0602 42.5347 42.0602 40.7273C42.0602 40.2348 41.9491 39.7488 41.7351 39.3052L30.0282 15.0386V4H18.019Z" clip-rule="evenodd"/><path stroke="#000" stroke-linecap="round" stroke-width="4" d="M10.9604 29.9998C13.1241 31.3401 15.2893 32.0103 17.4559 32.0103C19.6226 32.0103 21.7908 31.3401 23.9605 29.9998C26.1088 28.6735 28.2664 28.0103 30.433 28.0103C32.5997 28.0103 34.7755 28.6735 36.9604 29.9998"/></svg>