<svg xmlns="http://www.w3.org/2000/svg" xmlns:xlink="http://www.w3.org/1999/xlink" width="48" height="48" version="1.1" viewBox="0 0 48 48"><title>map-distance</title><desc>Created with Sketch.</desc><g id="map-distance" fill="none" fill-rule="evenodd" stroke="none" stroke-width="1"><g id="编组"><rect id="矩形" width="48" height="48" x="0" y="0" fill="#FFF" fill-opacity=".01"/><rect id="Rectangle-4-Copy" width="40" height="40" x="4" y="4" fill="#2F88FF" fill-rule="nonzero" stroke="#000" stroke-linejoin="round" stroke-width="4" rx="3"/><path id="Path-11-Copy-4" stroke="#FFF" stroke-dasharray="2 6" stroke-linecap="round" stroke-linejoin="round" stroke-width="4" d="M12,38 L37,28"/><path id="Oval-6-Copy" fill="#43CCF8" fill-rule="nonzero" stroke="#FFF" stroke-linejoin="round" stroke-width="4" d="M14,31 C16.6666667,27.139426 18,24.4727593 18,23 C18,20.790861 16.209139,19 14,19 C11.790861,19 10,20.790861 10,23 C10,24.4727593 11.3333333,27.139426 14,31 Z"/><path id="Oval-6-Copy" fill="#43CCF8" fill-rule="nonzero" stroke="#FFF" stroke-linejoin="round" stroke-width="4" d="M34,22 C36.6666667,18.139426 38,15.4727593 38,14 C38,11.790861 36.209139,10 34,10 C31.790861,10 30,11.790861 30,14 C30,15.4727593 31.3333333,18.139426 34,22 Z"/></g></g></svg>