<svg xmlns="http://www.w3.org/2000/svg" xmlns:xlink="http://www.w3.org/1999/xlink" width="48" height="48" version="1.1" viewBox="0 0 48 48"><title>pic</title><desc>Created with Sketch.</desc><g id="pic" fill="none" fill-rule="evenodd" stroke="none" stroke-linejoin="round" stroke-width="1"><rect width="48" height="48" fill="#fff" fill-opacity=".01"/><g id="编组备份-3" stroke="#000" transform="translate(5.000000, 8.000000)"><path id="Rectangle" stroke-linecap="round" stroke-width="4" d="M2,0 L36,0 C37.1045695,-2.02906125e-16 38,0.8954305 38,2 L38,30 C38,31.1045695 37.1045695,32 36,32 L2,32 C0.8954305,32 1.3527075e-16,31.1045695 0,30 L0,2 C-1.3527075e-16,0.8954305 0.8954305,2.02906125e-16 2,0 Z"/><circle id="Oval" cx="9.5" cy="8.5" r="1.5" stroke-linecap="round" stroke-width="3"/><path id="Path-3" fill="#2F88FF" fill-rule="nonzero" stroke-width="4" d="M10,16 L15,20 L21,13 L38,26 L38,30 C38,31.1045695 37.1045695,32 36,32 L2,32 C0.8954305,32 2.27508946e-13,31.1045695 2.27373675e-13,30 L2.27373675e-13,26 L10,16 Z"/></g></g></svg>