<svg xmlns="http://www.w3.org/2000/svg" width="48" height="48" fill="none" viewBox="0 0 48 48"><rect width="48" height="48" fill="#fff" fill-opacity=".01"/><rect width="12" height="40" x="6" y="4" stroke="#000" stroke-linejoin="round" stroke-width="4" rx="6"/><rect width="12" height="40" x="30" y="4" stroke="#000" stroke-linejoin="round" stroke-width="4" rx="6"/><path fill="#2F88FF" stroke="#000" stroke-linejoin="round" stroke-width="4" d="M12 44C15.3137 44 18 41.3137 18 38C18 34.6863 15.3137 32 12 32C8.68629 32 6 34.6863 6 38C6 41.3137 8.68629 44 12 44Z"/><path fill="#2F88FF" stroke="#000" stroke-linejoin="round" stroke-width="4" d="M36 44C39.3137 44 42 41.3137 42 38C42 34.6863 39.3137 32 36 32C32.6863 32 30 34.6863 30 38C30 41.3137 32.6863 44 36 44Z"/><path stroke="#000" stroke-linecap="round" stroke-linejoin="round" stroke-width="4" d="M30 21C30 17.6863 27.3137 15 24 15C20.6863 15 18 17.6863 18 21"/><path stroke="#000" stroke-linecap="round" stroke-linejoin="round" stroke-width="4" d="M30 31C30 27.6863 27.3137 25 24 25C20.6863 25 18 27.6863 18 31"/></svg>