<svg xmlns="http://www.w3.org/2000/svg" width="48" height="48" fill="none" viewBox="0 0 48 48"><rect width="48" height="48" fill="#fff" fill-opacity=".01"/><path fill="#2F88FF" stroke="#000" stroke-linecap="round" stroke-linejoin="round" stroke-width="4" d="M33.6961 40.8677L39 17H7L12.3039 40.8677C12.6376 42.3694 12.8045 43.1202 13.3529 43.5601C13.9013 44 14.6704 44 16.2087 44H29.7913C31.3296 44 32.0987 44 32.6471 43.5601C33.1955 43.1202 33.3624 42.3694 33.6961 40.8677Z"/><path stroke="#fff" stroke-linecap="round" stroke-linejoin="round" stroke-width="4" d="M27 44L28 17"/><path stroke="#fff" stroke-linecap="round" stroke-linejoin="round" stroke-width="4" d="M19 44L18 17"/><path stroke="#000" stroke-linecap="round" stroke-linejoin="round" stroke-width="4" d="M31 44H15"/><path stroke="#000" stroke-linecap="round" stroke-linejoin="round" stroke-width="4" d="M31 17H15"/><path stroke="#000" stroke-linecap="round" stroke-linejoin="round" stroke-width="4" d="M11 17C11 17 9.99999 14 11.5 12.5C13 11 16 11.5 16 11.5C16 11.5 16 8.49996 18 7.49996C20 6.49996 23 7.99994 23 7.99994C23 7.99994 25 4.64278 28 5.49998C31 6.35719 31 10 31 10C31 10 33.5 10 35 12C36.5 14 35 17 35 17"/></svg>