<svg xmlns="http://www.w3.org/2000/svg" width="48" height="48" fill="none" viewBox="0 0 48 48"><path stroke="#000" stroke-linecap="round" stroke-linejoin="round" stroke-miterlimit="2" stroke-width="4" d="M13 43C17.42 43 21 39.42 21 35C21 30.58 17.42 27 13 27C8.58 27 5 30.58 5 35C5 39.42 8.58 43 13 43Z"/><path stroke="#000" stroke-linecap="round" stroke-linejoin="round" stroke-miterlimit="2" stroke-width="4" d="M35 43C39.42 43 43 39.42 43 35C43 30.58 39.42 27 35 27C30.58 27 27 30.58 27 35C27 39.42 30.58 43 35 43Z"/><path stroke="#000" stroke-linecap="round" stroke-linejoin="round" stroke-miterlimit="2" stroke-width="4" d="M6 5H42"/><path stroke="#000" stroke-linecap="square" stroke-linejoin="round" stroke-miterlimit="2" stroke-width="4" d="M13 27V5"/><path stroke="#000" stroke-linecap="square" stroke-linejoin="round" stroke-miterlimit="2" stroke-width="4" d="M35 27V5"/><path stroke="#000" stroke-linecap="round" stroke-linejoin="round" stroke-miterlimit="2" stroke-width="4" d="M9 19H17"/><path stroke="#000" stroke-linecap="round" stroke-linejoin="round" stroke-miterlimit="2" stroke-width="4" d="M31 19H39"/></svg>