<svg xmlns="http://www.w3.org/2000/svg" width="48" height="48" fill="none" viewBox="0 0 48 48"><path stroke="#000" stroke-linejoin="round" stroke-miterlimit="2" stroke-width="4" d="M24 40C32.84 40 40 32.84 40 24C40 15.16 32.84 8.00001 24 8.00001C15.16 8.00001 8 15.16 8 24C8 32.84 15.16 40 24 40Z"/><path stroke="#000" stroke-linejoin="round" stroke-miterlimit="2" stroke-width="4" d="M24 32C28.42 32 32 28.42 32 24C32 19.58 28.42 16 24 16C19.58 16 16 19.58 16 24C16 28.42 19.58 32 24 32Z"/><path fill="#000" d="M24 26C25.1 26 26 25.1 26 24C26 22.9 25.1 22 24 22C22.9 22 22 22.9 22 24C22 25.1 22.9 26 24 26Z"/><path stroke="#000" stroke-linecap="round" stroke-linejoin="round" stroke-miterlimit="2" stroke-width="4" d="M24 8.00001V4.00001"/><path stroke="#000" stroke-linecap="round" stroke-linejoin="round" stroke-miterlimit="2" stroke-width="4" d="M38 44L34 37"/><path stroke="#000" stroke-linecap="round" stroke-linejoin="round" stroke-miterlimit="2" stroke-width="4" d="M14 37L10 44"/></svg>