<svg xmlns="http://www.w3.org/2000/svg" width="48" height="48" fill="none" viewBox="0 0 48 48"><rect width="48" height="48" fill="#fff" fill-opacity=".01"/><path fill="#fff" fill-opacity=".01" d="M48 0H0V48H48V0Z"/><path fill="#2F88FF" stroke="#000" stroke-linejoin="round" stroke-width="4" d="M41 18H19C18.4477 18 18 18.4477 18 19V41C18 41.5523 18.4477 42 19 42H41C41.5523 42 42 41.5523 42 41V19C42 18.4477 41.5523 18 41 18Z"/><path stroke="#000" stroke-linecap="round" stroke-linejoin="round" stroke-width="4" d="M9.96906 6H6V10.0336"/><path stroke="#000" stroke-linecap="round" stroke-linejoin="round" stroke-width="4" d="M9.99705 30H6V26.012"/><path stroke="#000" stroke-linecap="round" stroke-linejoin="round" stroke-width="4" d="M26.0023 6H30V10.0152"/><path stroke="#000" stroke-linecap="round" stroke-linejoin="round" stroke-width="4" d="M16.0283 6H20.0083"/><path stroke="#000" stroke-linecap="round" stroke-linejoin="round" stroke-width="4" d="M6 16C6 18.6536 6 19.9869 6 20"/><path stroke="#000" stroke-linecap="round" stroke-linejoin="round" stroke-width="4" d="M30 16C30 18.6765 30 19.3456 30 18.0074"/><path stroke="#000" stroke-linecap="round" stroke-width="4" d="M15.9927 30H18.0001"/></svg>