<svg xmlns="http://www.w3.org/2000/svg" width="48" height="48" fill="none" viewBox="0 0 48 48"><rect width="48" height="48" fill="#fff" fill-opacity=".01"/><path fill="#2F88FF" d="M44 8V16V32V40H34V32H44V16H34V8H44Z"/><path fill="#2F88FF" d="M4 16V8H14V16H4V32H14V40H4V32V16Z"/><path stroke="#000" stroke-linecap="round" stroke-linejoin="round" stroke-width="4" d="M44 16V8H34M44 16V32M44 16H34M4 16V8H14M4 16V32M4 16H14M4 32V40H14M4 32H14M44 32V40H34M44 32H34M34 8V16M34 8H30M34 40V32M34 40H30M14 8V16M14 8H18M14 40V32M14 40H18M14 16H18M34 16H30M34 32H30M14 32H18"/><path stroke="#000" stroke-dasharray="2 6" stroke-linecap="round" stroke-linejoin="round" stroke-width="4" d="M24 4V44"/></svg>