<svg xmlns="http://www.w3.org/2000/svg" width="48" height="48" fill="none" viewBox="0 0 48 48"><rect width="48" height="48" fill="#fff" fill-opacity=".01"/><path fill="#fff" fill-opacity=".01" d="M48 0H0V48H48V0Z"/><path stroke="#000" stroke-linecap="round" stroke-linejoin="round" stroke-width="4" d="M30 18H41C41.5523 18 42 18.4477 42 19V41C42 41.5523 41.5523 42 41 42H19C18.4477 42 18 41.5523 18 41V30"/><path stroke="#000" stroke-linecap="round" stroke-linejoin="round" stroke-width="4" d="M9.96906 6H6V10.0336"/><path stroke="#000" stroke-linecap="round" stroke-linejoin="round" stroke-width="4" d="M9.99705 30H6V26.012"/><path stroke="#000" stroke-linecap="round" stroke-linejoin="round" stroke-width="4" d="M26 30H29.9971V26.012"/><path stroke="#000" stroke-linecap="round" stroke-linejoin="round" stroke-width="4" d="M26.0023 6H30V9.99785"/><path stroke="#000" stroke-linecap="round" stroke-width="4" d="M16.0283 6H20.0083"/><path stroke="#000" stroke-linecap="round" stroke-linejoin="round" stroke-width="4" d="M6 16V20.0148"/><path stroke="#000" stroke-linecap="round" stroke-linejoin="round" stroke-width="4" d="M30 16V20.0148"/><path stroke="#000" stroke-linecap="round" stroke-linejoin="round" stroke-width="4" d="M15.9927 30H20.0001"/></svg>