<svg xmlns="http://www.w3.org/2000/svg" width="48" height="48" fill="none" viewBox="0 0 48 48"><rect width="48" height="48" fill="#fff" fill-opacity=".01"/><path fill="#2F88FF" stroke="#000" stroke-linejoin="round" stroke-width="4" d="M6 37C6 29.2967 6 11 6 11C6 7.68629 8.68629 5 12 5H36V31C36 31 17.2326 31 12 31C8.7 31 6 33.6842 6 37Z"/><path stroke="#000" stroke-linecap="round" stroke-linejoin="round" stroke-width="4" d="M36 31C36 31 13.1537 31 12 31C8.68629 31 6 33.6863 6 37C6 40.3137 8.68629 43 12 43C14.2091 43 26.8758 43 42 43V7"/><path stroke="#000" stroke-linecap="round" stroke-linejoin="round" stroke-width="4" d="M13 37H35"/></svg>