<svg xmlns="http://www.w3.org/2000/svg" width="48" height="48" fill="none" viewBox="0 0 48 48"><rect width="48" height="48" fill="#fff" fill-opacity=".01"/><path fill="#fff" fill-opacity=".01" d="M48 0H0V48H48V0Z"/><path fill="#2F88FF" stroke="#000" stroke-linecap="round" stroke-linejoin="round" stroke-width="4" d="M10.5 42C15.1944 42 19 38.1944 19 33.5C19 28.8056 15.1944 25 10.5 25C5.80558 25 2 28.8056 2 33.5C2 38.1944 5.80558 42 10.5 42Z"/><path fill="#2F88FF" stroke="#000" stroke-linecap="round" stroke-linejoin="round" stroke-width="4" d="M37 42C41.9706 42 46 37.9706 46 33C46 28.0294 41.9706 24 37 24C32.0294 24 28 28.0294 28 33C28 37.9706 32.0294 42 37 42Z"/><path stroke="#000" stroke-linecap="round" stroke-linejoin="round" stroke-width="4" d="M18.9971 6H27.9976L37.0004 33"/><path fill="#2F88FF" fill-rule="evenodd" d="M11.0576 33L31.6821 16.7632L11.0576 33Z" clip-rule="evenodd"/><path stroke="#000" stroke-linecap="round" stroke-linejoin="round" stroke-width="4" d="M11.0576 33L31.6821 16.7632"/><path stroke="#000" stroke-linecap="round" stroke-linejoin="round" stroke-width="4" d="M31.6816 15H40.1537L41.9998 10"/><path stroke="#000" stroke-linecap="round" stroke-linejoin="round" stroke-width="4" d="M8 15.9737H15"/><path stroke="#000" stroke-linecap="round" stroke-linejoin="round" stroke-width="4" d="M15 16L18.2727 26.4211"/></svg>