<svg xmlns="http://www.w3.org/2000/svg" width="48" height="48" fill="none" viewBox="0 0 48 48"><rect width="48" height="48" fill="#fff" fill-opacity=".01"/><path fill="#fff" fill-opacity=".01" d="M48 0H0V48H48V0Z"/><path fill="#2F88FF" stroke="#000" stroke-linejoin="round" stroke-width="4" d="M40.0005 4H8.00069C6.89614 4 6.00071 4.89541 6.00069 5.99996L6.00004 42C6.00002 43.1045 6.89546 44 8.00004 44H40.0005C41.1051 44 42.0005 43.1046 42.0005 42V6C42.0005 4.89543 41.1051 4 40.0005 4Z"/><path fill="#43CCF8" stroke="#fff" stroke-linejoin="round" stroke-width="4" d="M35 10H13V19H35V10Z"/><path stroke="#fff" stroke-linecap="round" stroke-linejoin="round" stroke-width="4" d="M12 28L19 35"/><path stroke="#fff" stroke-linecap="round" stroke-linejoin="round" stroke-width="4" d="M19 28L12 35"/><path stroke="#fff" stroke-linecap="round" stroke-linejoin="round" stroke-width="4" d="M28 35H36"/><path stroke="#fff" stroke-linecap="round" stroke-linejoin="round" stroke-width="4" d="M28 29H36"/></svg>