<svg xmlns="http://www.w3.org/2000/svg" width="48" height="48" fill="none" viewBox="0 0 48 48"><rect width="48" height="48" fill="#fff" fill-opacity=".01"/><path stroke="#000" stroke-width="4" d="M8 17.012C8 16.4531 8.45311 16 9.01205 16H32.988C33.5469 16 34 16.4531 34 17.012V31C34 38.1797 28.1797 44 21 44V44C13.8203 44 8 38.1797 8 31V17.012Z"/><rect width="26" height="8" x="8" y="23" fill="#2F88FF" stroke="#000" stroke-linecap="round" stroke-linejoin="round" stroke-width="4"/><path stroke="#000" stroke-linecap="round" stroke-linejoin="round" stroke-width="4" d="M21 4V10"/><path stroke="#000" stroke-linecap="round" stroke-linejoin="round" stroke-width="4" d="M13 6V8"/><path stroke="#000" stroke-linecap="round" stroke-linejoin="round" stroke-width="4" d="M29 6V8"/><path stroke="#000" stroke-linecap="round" stroke-width="4" d="M34 34C37.866 34 41 30.866 41 27C41 23.134 37.866 20 34 20"/></svg>