<svg xmlns="http://www.w3.org/2000/svg" width="48" height="48" fill="none" viewBox="0 0 48 48"><rect width="48" height="48" fill="#fff" fill-opacity=".01"/><path stroke="#000" stroke-linecap="round" stroke-linejoin="round" stroke-width="4" d="M32 33H42C43.1046 33 44 32.1046 44 31V15C44 13.8954 43.1046 13 42 13H32"/><path stroke="#000" stroke-linecap="round" stroke-linejoin="round" stroke-width="4" d="M16 33H6C4.89543 33 4 32.1046 4 31V15C4 13.8954 4.89543 13 6 13H16"/><path stroke="#000" stroke-linecap="round" stroke-linejoin="round" stroke-width="4" d="M12 13V19H36V13"/><path stroke="#000" stroke-linecap="round" stroke-linejoin="round" stroke-width="4" d="M16 13V5H32V13"/><path stroke="#000" stroke-linecap="round" stroke-linejoin="round" stroke-width="4" d="M16 29V43H32V29"/><path stroke="#000" stroke-linecap="round" stroke-linejoin="round" stroke-width="4" d="M22 35H26"/><line x1="13" x2="35" y1="27" y2="27" stroke="#000" stroke-linecap="round" stroke-linejoin="round" stroke-width="4"/></svg>