<svg xmlns="http://www.w3.org/2000/svg" width="48" height="48" fill="none" viewBox="0 0 48 48"><rect width="48" height="48" fill="#fff" fill-opacity=".01"/><path fill="#2F88FF" stroke="#000" stroke-linecap="round" stroke-linejoin="round" stroke-width="4" d="M17.0813 5.99999C10.9613 10.2853 9.47391 18.7204 13.7592 24.8405C18.0445 30.9605 26.4796 32.4478 32.5997 28.1625L17.0813 5.99999Z"/><path stroke="#000" stroke-linecap="round" stroke-linejoin="round" stroke-width="4" d="M22 31V42"/><path stroke="#000" stroke-linecap="round" stroke-linejoin="round" stroke-width="4" d="M13 24.5L6 42H42"/><path stroke="#000" stroke-linecap="round" stroke-linejoin="round" stroke-width="4" d="M40 6L25 17"/><path fill="#000" d="M41.9059 6.60641C42.2408 5.55383 41.659 4.42906 40.6064 4.09415C39.5538 3.75924 38.4291 4.34102 38.0942 5.39359L41.9059 6.60641ZM31.0942 27.3936C30.7592 28.4462 31.341 29.5709 32.3936 29.9059C33.4462 30.2408 34.5709 29.659 34.9059 28.6064L31.0942 27.3936ZM38.0942 5.39359L31.0942 27.3936L34.9059 28.6064L41.9059 6.60641L38.0942 5.39359Z"/><path fill="#000" d="M17 4C15.8954 4 15 4.89543 15 6C15 7.10457 15.8954 8 17 8V4ZM40 8C41.1046 8 42 7.10457 42 6C42 4.89543 41.1046 4 40 4V8ZM17 8H40V4H17V8Z"/></svg>