<svg xmlns="http://www.w3.org/2000/svg" width="48" height="48" fill="none" viewBox="0 0 48 48"><path fill="#2F88FF" stroke="#000" stroke-linejoin="round" stroke-width="4" d="M33 4H15V12H33V4Z"/><path stroke="#000" stroke-linecap="round" stroke-linejoin="round" stroke-width="4" d="M14.5882 4H10C8.89543 4 8 4.89543 8 6V42C8 43.1046 8.89543 44 10 44H38C39.1046 44 40 43.1046 40 42V6C40 4.89543 39.1046 4 38 4H33.4118"/><path stroke="#000" stroke-linecap="round" stroke-linejoin="round" stroke-width="4" d="M26.9996 20L19 28.0012H29.004L21.0003 36.0018"/><path fill="#fff" fill-opacity=".01" d="M0 0V-1H-1V0H0ZM48 0H49V-1H48V0ZM48 48V49H49V48H48ZM0 48H-1V49H0V48ZM0 1H48V-1H0V1ZM47 0V48H49V0H47ZM48 47H0V49H48V47ZM1 48V0H-1V48H1Z"/></svg>