<svg xmlns="http://www.w3.org/2000/svg" width="48" height="48" fill="none" viewBox="0 0 48 48"><rect width="48" height="48" fill="#fff" fill-opacity=".01"/><path fill="#2F88FF" fill-rule="evenodd" stroke="#000" stroke-linecap="round" stroke-linejoin="round" stroke-width="4" d="M2 12H46V36H30L24 30L18 36H2V12Z" clip-rule="evenodd"/><path fill="#43CCF8" fill-rule="evenodd" stroke="#fff" stroke-linecap="round" stroke-linejoin="round" stroke-width="4" d="M13 28C15.2091 28 17 26.2091 17 24C17 21.7909 15.2091 20 13 20C10.7909 20 9 21.7909 9 24C9 26.2091 10.7909 28 13 28Z" clip-rule="evenodd"/><path fill="#43CCF8" fill-rule="evenodd" stroke="#fff" stroke-linecap="round" stroke-linejoin="round" stroke-width="4" d="M35 28C37.2091 28 39 26.2091 39 24C39 21.7909 37.2091 20 35 20C32.7909 20 31 21.7909 31 24C31 26.2091 32.7909 28 35 28Z" clip-rule="evenodd"/></svg>