<svg xmlns="http://www.w3.org/2000/svg" width="48" height="48" fill="none" viewBox="0 0 48 48"><rect width="48" height="48" fill="#fff" fill-opacity=".01"/><path fill="#fff" fill-opacity=".01" d="M48 0H0V48H48V0Z"/><path fill="#2F88FF" stroke="#000" stroke-linejoin="round" stroke-width="4" d="M7.82507 29.7655C11.4617 34.7564 17.352 38 24 38C30.648 38 36.5383 34.7564 40.1749 29.7655C43.7911 33.5077 46 38.5076 46 44H2C2 38.5076 4.20894 33.5077 7.82507 29.7655Z"/><path fill="#2F88FF" stroke="#000" stroke-linejoin="round" stroke-width="4" d="M24 30C31.1797 30 37 24.1797 37 17C37 9.8203 31.1797 4 24 4C16.8203 4 11 9.8203 11 17C11 24.1797 16.8203 30 24 30Z"/><path fill="#43CCF8" stroke="#fff" stroke-linejoin="round" stroke-width="4" d="M24 22C26.7614 22 29 19.7614 29 17C29 14.2386 26.7614 12 24 12C21.2386 12 19 14.2386 19 17C19 19.7614 21.2386 22 24 22Z"/></svg>