<svg xmlns="http://www.w3.org/2000/svg" width="48" height="48" fill="none" viewBox="0 0 48 48"><rect width="48" height="48" fill="#fff" fill-opacity=".01"/><path stroke="#000" stroke-linecap="round" stroke-linejoin="round" stroke-width="4" d="M13 35H7V41"/><path stroke="#000" stroke-linecap="round" stroke-linejoin="round" stroke-width="4" d="M41 41H35V35"/><path stroke="#000" stroke-linecap="round" stroke-linejoin="round" stroke-width="4" d="M35 13H41V7"/><path stroke="#000" stroke-linecap="round" stroke-linejoin="round" stroke-width="4" d="M7 7H13V13"/><path stroke="#000" stroke-linecap="round" stroke-linejoin="round" stroke-width="4" d="M13 7.29405C7.57778 10.8715 4 17.0179 4 24C4 25.0196 4.0763 26.0214 4.2235 27"/><path stroke="#000" stroke-linecap="round" stroke-linejoin="round" stroke-width="4" d="M26.9999 43.7765C26.0213 43.9237 25.0195 44 23.9999 44C17.0178 44 10.8714 40.4222 7.29395 35"/><path stroke="#000" stroke-linecap="round" stroke-linejoin="round" stroke-width="4" d="M43.7765 21C43.9237 21.9786 44 22.9804 44 24C44 30.9821 40.4222 37.1285 35 40.706"/><path stroke="#000" stroke-linecap="round" stroke-linejoin="round" stroke-width="4" d="M21 4.2235C21.9786 4.0763 22.9804 4 24 4C30.9821 4 37.1285 7.57778 40.706 13"/></svg>