<svg xmlns="http://www.w3.org/2000/svg" xmlns:xlink="http://www.w3.org/1999/xlink" width="48" height="48" version="1.1" viewBox="0 0 48 48"><title>reject</title><desc>Created with Sketch.</desc><g id="reject" fill="none" fill-rule="evenodd" stroke="none" stroke-width="1"><g id="编组"><rect id="矩形" width="48" height="48" x="0" y="0" fill="#FFF" fill-opacity=".01"/><path id="形状" stroke="#000" stroke-linecap="round" stroke-linejoin="round" stroke-width="4" d="M19.0099137,42 L9,42 C7.34314575,42 6,40.6568542 6,39 L6,9 C6,7.34314575 7.34314575,6 9,6 L9,6 L39,6 C40.6568542,6 42,7.34314575 42,9 L42,19.0303905"/><path id="路径" stroke="#000" stroke-linecap="round" stroke-linejoin="round" stroke-width="4" d="M42,29.0345925 L42,41 C42,41.5522847 41.5522847,42 41,42 L29.037068,42"/><path id="路径-20" stroke="#000" stroke-linecap="round" stroke-linejoin="round" stroke-width="4" d="M42,29.0345925 L18,29.0345925"/><polyline id="Path-367" stroke="#000" stroke-linecap="round" stroke-linejoin="round" stroke-width="4" points="17 23 23 29 17 35" transform="translate(20.000000, 29.000000) scale(-1, 1) translate(-20.000000, -29.000000)"/></g></g></svg>