<svg xmlns="http://www.w3.org/2000/svg" width="48" height="48" fill="none" viewBox="0 0 48 48"><rect width="48" height="48" fill="#fff" fill-opacity=".01"/><path fill="#000" fill-rule="evenodd" d="M24 3V6.15V3Z" clip-rule="evenodd"/><path stroke="#000" stroke-linecap="round" stroke-linejoin="round" stroke-width="4" d="M24 3V6.15"/><path fill="#000" fill-rule="evenodd" d="M38.8492 9.15076L36.6219 11.3781L38.8492 9.15076Z" clip-rule="evenodd"/><path stroke="#000" stroke-linecap="round" stroke-linejoin="round" stroke-width="4" d="M38.8492 9.15076L36.6219 11.3781"/><path fill="#000" fill-rule="evenodd" d="M45 24H41.85H45Z" clip-rule="evenodd"/><path stroke="#000" stroke-linecap="round" stroke-linejoin="round" stroke-width="4" d="M45 24H41.85"/><path fill="#000" fill-rule="evenodd" d="M38.8492 38.8492L36.6219 36.6219L38.8492 38.8492Z" clip-rule="evenodd"/><path stroke="#000" stroke-linecap="round" stroke-linejoin="round" stroke-width="4" d="M38.8492 38.8492L36.6219 36.6219"/><path fill="#000" fill-rule="evenodd" d="M24 45V41.85V45Z" clip-rule="evenodd"/><path stroke="#000" stroke-linecap="round" stroke-linejoin="round" stroke-width="4" d="M24 45V41.85"/><path fill="#000" fill-rule="evenodd" d="M9.15076 38.8492L11.3781 36.6219L9.15076 38.8492Z" clip-rule="evenodd"/><path stroke="#000" stroke-linecap="round" stroke-linejoin="round" stroke-width="4" d="M9.15076 38.8492L11.3781 36.6219"/><path fill="#000" fill-rule="evenodd" d="M3 24H6.15H3Z" clip-rule="evenodd"/><path stroke="#000" stroke-linecap="round" stroke-linejoin="round" stroke-width="4" d="M3 24H6.15"/><path fill="#000" fill-rule="evenodd" d="M9.15076 9.15076L11.3781 11.3781L9.15076 9.15076Z" clip-rule="evenodd"/><path stroke="#000" stroke-linecap="round" stroke-linejoin="round" stroke-width="4" d="M9.15076 9.15076L11.3781 11.3781"/><path fill="#2F88FF" stroke="#000" stroke-linejoin="round" stroke-width="4" d="M24 36C30.6274 36 36 30.6274 36 24C36 17.3726 30.6274 12 24 12C17.3726 12 12 17.3726 12 24C12 30.6274 17.3726 36 24 36Z"/></svg>