<svg xmlns="http://www.w3.org/2000/svg" width="48" height="48" fill="none" viewBox="0 0 48 48"><rect width="48" height="48" fill="#fff" fill-opacity=".01"/><path stroke="#000" stroke-linecap="round" stroke-linejoin="round" stroke-width="4" d="M35 27V17M35 17V16C35 10.3431 35 7.51472 33.2426 5.75736C31.4853 4 28.6569 4 23 4H19C13.3431 4 10.5147 4 8.75736 5.75736C7 7.51472 7 10.3431 7 16V44H35V37C35 37 42 37 42 31C42 29 42 26 42 23C42 17 35 17 35 17Z"/><path stroke="#000" stroke-linecap="round" stroke-linejoin="round" stroke-width="4" d="M14 23V5"/><path stroke="#000" stroke-linecap="round" stroke-linejoin="round" stroke-width="4" d="M21 23V5"/><path stroke="#000" stroke-linecap="round" stroke-linejoin="round" stroke-width="4" d="M28 23V5"/></svg>