<svg xmlns="http://www.w3.org/2000/svg" width="48" height="48" fill="none" viewBox="0 0 48 48"><rect width="48" height="48" fill="#fff" fill-opacity=".01"/><circle cx="24" cy="24" r="16" stroke="#000" stroke-linecap="round" stroke-linejoin="round" stroke-width="4"/><circle cx="24" cy="24" r="4" fill="#2F88FF" stroke="#000" stroke-linecap="round" stroke-linejoin="round" stroke-width="4"/><path fill="#2F88FF" stroke="#000" stroke-linecap="round" stroke-linejoin="round" stroke-width="4" d="M24 4C26.6264 4 29.2272 4.51732 31.6537 5.52241C34.0802 6.5275 36.285 8.00069 38.1421 9.85787C39.9993 11.715 41.4725 13.9198 42.4776 16.3463C43.4827 18.7728 44 21.3736 44 24L36.0064 24C36.0064 22.4233 35.6959 20.862 35.0925 19.4053C34.4891 17.9487 33.6047 16.6251 32.4898 15.5102C31.3749 14.3953 30.0513 13.5109 28.5947 12.9075C27.138 12.3041 25.5767 11.9936 24 11.9936V4Z"/></svg>