<svg xmlns="http://www.w3.org/2000/svg" width="48" height="48" fill="none" viewBox="0 0 48 48"><rect width="48" height="48" fill="#fff" fill-opacity=".01"/><path stroke="#000" stroke-linecap="round" stroke-linejoin="round" stroke-width="4" d="M42 6H6C4.89543 6 4 6.89543 4 8V34C4 35.1046 4.89543 36 6 36H42C43.1046 36 44 35.1046 44 34V8C44 6.89543 43.1046 6 42 6Z"/><path stroke="#000" stroke-linecap="round" stroke-linejoin="round" stroke-width="4" d="M12 14L36 14"/><path stroke="#000" stroke-linecap="round" stroke-linejoin="round" stroke-width="4" d="M12 21H18"/><path stroke="#000" stroke-linecap="round" stroke-linejoin="round" stroke-width="4" d="M12 28H16"/><circle cx="30" cy="27" r="6" fill="#2F88FF" stroke="#000" stroke-width="4"/><path fill="#2F88FF" stroke="#000" stroke-linecap="round" stroke-linejoin="round" stroke-width="4" d="M30 40L34 42V31.4722C34 31.4722 32.8594 33 30 33C27.1406 33 26 31.5 26 31.5V42L30 40Z"/></svg>