<svg xmlns="http://www.w3.org/2000/svg" xmlns:xlink="http://www.w3.org/1999/xlink" width="48" height="48" version="1.1" viewBox="0 0 48 48"><title>cooking-pot</title><desc>Created with Sketch.</desc><g id="cooking-pot" fill="none" fill-rule="evenodd" stroke="none" stroke-linejoin="round" stroke-width="1"><rect width="48" height="48" fill="#fff" fill-opacity=".01"/><g id="编组" stroke="#000" stroke-width="4" transform="translate(4.000000, 3.000000)"><path id="Oval-10" stroke-linecap="round" d="M6,41 L34,41 L34,17.9473684 C34,11.9013038 27.7319865,7 20,7 C12.2680135,7 6,11.9013038 6,17.9473684 L6,41 Z"/><path id="路径" fill="#2F88FF" fill-rule="nonzero" d="M34,19.0436777 C34,18.8000534 34,18.434617 34,17.9473684 C34,11.9013038 27.7319865,7 20,7 C12.2680135,7 6,11.9013038 6,17.9473684 C6,18.4331602 6,18.7975039 6,19.0403998 L34,19.0436777 Z"/><path id="Path-21" stroke-linecap="round" d="M0,19 L40,19"/><path id="Path-22" stroke-linecap="round" d="M17,1 L23,1"/></g></g></svg>