<svg xmlns="http://www.w3.org/2000/svg" width="48" height="48" fill="none" viewBox="0 0 48 48"><rect width="48" height="48" fill="#fff" fill-opacity=".01"/><path stroke="#000" stroke-linecap="round" stroke-linejoin="round" stroke-width="4" d="M44 24C44 35.0457 35.0457 44 24 44C12.9543 44 4 35.0457 4 24M44 24H40M44 24C44 18.4836 41.7666 13.4887 38.1547 9.87045M4 24H8M4 24C4 18.4835 6.23339 13.4887 9.84529 9.87045M24 4V8M24 4C29.5292 4 34.5344 6.24377 38.1547 9.87045M24 4C18.4708 4 13.4656 6.24377 9.84529 9.87045M38.1547 9.87045L35.0252 13M9.84529 9.87045L12.9748 13"/><path stroke="#000" stroke-linecap="round" stroke-linejoin="round" stroke-width="4" d="M24 20V32"/><path stroke="#000" stroke-linecap="round" stroke-linejoin="round" stroke-width="4" d="M39.8523 36.1961C36.1954 40.9422 30.4548 44 24 44C17.5452 44 11.8046 40.9422 8.14771 36.1961C12.8209 33.5259 18.2323 32 24 32C29.7677 32 35.179 33.5259 39.8523 36.1961Z"/></svg>