<svg xmlns="http://www.w3.org/2000/svg" width="48" height="48" fill="none" viewBox="0 0 48 48"><rect width="48" height="48" fill="#fff" fill-opacity=".01"/><path fill-rule="evenodd" stroke="#000" stroke-linecap="round" stroke-linejoin="round" stroke-width="4" d="M24 44C35.0457 44 44 35.0457 44 24C44 12.9543 35.0457 4 24 4C12.9543 4 4 12.9543 4 24C4 35.0457 12.9543 44 24 44Z" clip-rule="evenodd"/><path stroke="#000" stroke-linecap="round" stroke-linejoin="round" stroke-width="4" d="M4 24H44"/><path fill-rule="evenodd" stroke="#000" stroke-linecap="round" stroke-linejoin="round" stroke-width="4" d="M24 44C28.4183 44 32 35.0457 32 24C32 12.9543 28.4183 4 24 4C19.5817 4 16 12.9543 16 24C16 35.0457 19.5817 44 24 44Z" clip-rule="evenodd"/><path stroke="#000" stroke-linecap="round" stroke-linejoin="round" stroke-width="4" d="M9.85791 10.1421C13.4772 13.7614 18.4772 16 24 16V16C29.5229 16 34.5229 13.7614 38.1422 10.1421"/><path stroke="#000" stroke-linecap="round" stroke-linejoin="round" stroke-width="4" d="M38.1422 37.8579C34.5229 34.2386 29.5229 32 24 32C18.4772 32 13.4772 34.2386 9.85791 37.8579"/></svg>