<svg xmlns="http://www.w3.org/2000/svg" width="48" height="48" fill="none" viewBox="0 0 48 48"><rect width="48" height="48" fill="#fff" fill-opacity=".01"/><path fill="#2F88FF" stroke="#000" stroke-linecap="round" stroke-linejoin="round" stroke-width="4" d="M36 21C36 28.1797 30.1797 34 23 34C15.8203 34 10 28.1797 10 21C10 13.8203 15 11 17 4C25 7.49989 25 18 25 18C25 18 27 12 33 10.5C33.5 16 36 17.9342 36 21Z"/><path fill="#2F88FF" stroke="#000" stroke-linecap="round" stroke-linejoin="round" stroke-width="4" d="M26 29C26 31.7614 24.6569 34 23 34C21.3431 34 20 31.7614 20 29C20 26.2386 23 24 23 24C23 24 26 26.2386 26 29Z"/><path stroke="#000" stroke-linecap="round" stroke-linejoin="round" stroke-width="4" d="M7 36L39 44"/><path stroke="#000" stroke-linecap="round" stroke-linejoin="round" stroke-width="4" d="M7 44L39 36"/></svg>