<svg xmlns="http://www.w3.org/2000/svg" xmlns:xlink="http://www.w3.org/1999/xlink" width="48" height="48" version="1.1" viewBox="0 0 48 48"><title>football</title><desc>Created with Sketch.</desc><g id="football" fill="none" fill-rule="evenodd" stroke="none" stroke-linecap="round" stroke-linejoin="round" stroke-width="1"><rect width="48" height="48" fill="#fff" fill-opacity=".01"/><g id="编组" stroke="#000" stroke-width="4" transform="translate(4.000000, 4.000000)"><circle id="Oval" cx="20" cy="20" r="20"/><g id="编组-2" transform="translate(2.000000, 2.000000)"><g id="编组-3" transform="translate(0.000000, 0.500000)"><polyline id="Path-374" points="24.093 0 18.07 4.359 18.07 8.718 25.814 14.821 30.116 13.077 32.698 6.103"/><polyline id="Path-375" points="12.047 0 18.07 4.359 18.07 8.718 10.326 14.821 6.023 13.077 3.442 6.103"/><polyline id="Path-376" points="0 15.692 6.023 13.077 10.326 14.821 12.907 24.41 10.326 27.897 2.581 27.897"/><polyline id="Path-377" points="10.326 34 10.326 27.897 12.907 24.41 23.233 24.41 25.814 27.897 25.814 34"/><polyline id="Path-378" points="33.558 27.897 25.814 27.897 23.233 24.41 25.814 14.821 30.116 13.077 37 16.564"/></g></g></g></g></svg>