<svg xmlns="http://www.w3.org/2000/svg" width="48" height="48" fill="none" viewBox="0 0 48 48"><rect width="48" height="48" fill="#fff" fill-opacity=".01"/><path fill-rule="evenodd" stroke="#000" stroke-linecap="round" stroke-linejoin="round" stroke-width="4" d="M38.1421 38.1421C45.9526 30.3316 45.9526 17.6684 38.1421 9.85786C30.3316 2.04738 17.6684 2.04738 9.85786 9.85786C2.04738 17.6684 2.04738 30.3316 9.85786 38.1421C17.6684 45.9526 30.3316 45.9526 38.1421 38.1421ZM32.4853 15.5147C37.1716 20.201 37.1716 27.799 32.4853 32.4853C27.799 37.1716 20.201 37.1716 15.5147 32.4853C10.8284 27.799 10.8284 20.201 15.5147 15.5147C20.201 10.8284 27.799 10.8284 32.4853 15.5147Z" clip-rule="evenodd"/><path stroke="#000" stroke-linecap="round" stroke-linejoin="round" stroke-width="4" d="M38.1421 38.1421L32.4852 32.4852"/><path stroke="#000" stroke-linecap="round" stroke-linejoin="round" stroke-width="4" d="M9.85791 38.1421L15.5148 32.4852"/><path stroke="#000" stroke-linecap="round" stroke-linejoin="round" stroke-width="4" d="M9.85791 9.85791L15.5148 15.5148"/><path stroke="#000" stroke-linecap="round" stroke-linejoin="round" stroke-width="4" d="M38.1421 9.85791L32.4852 15.5148"/><path stroke="#000" stroke-linecap="round" stroke-linejoin="round" stroke-width="4" d="M32.4853 32.4853C37.1716 27.799 37.1716 20.201 32.4853 15.5147C27.799 10.8284 20.201 10.8284 15.5147 15.5147C10.8284 20.201 10.8284 27.799 15.5147 32.4853C20.201 37.1716 27.799 37.1716 32.4853 32.4853Z"/></svg>