<svg xmlns="http://www.w3.org/2000/svg" width="48" height="48" fill="none" viewBox="0 0 48 48"><rect width="48" height="48" fill="#fff" fill-opacity=".01"/><path fill="#2F88FF" d="M4 24C4 24 10 15 14 15C18 15 22 17 24 17C26 17 30 15 34 15C38 15 44 24 44 24C44 24 34 34 24 34C14 34 4 24 4 24Z"/><path fill="#2F88FF" fill-rule="evenodd" d="M4 24H44H4Z" clip-rule="evenodd"/><path stroke="#000" stroke-linecap="round" stroke-linejoin="round" stroke-width="4" d="M4 24C4 24 10 15 14 15C18 15 22 17 24 17C26 17 30 15 34 15C38 15 44 24 44 24M4 24C4 24 14 34 24 34C34 34 44 24 44 24M4 24H44"/></svg>