<svg xmlns="http://www.w3.org/2000/svg" xmlns:xlink="http://www.w3.org/1999/xlink" width="48" height="48" version="1.1" viewBox="0 0 48 48"><title>rugby</title><desc>Created with Sketch.</desc><g id="rugby" fill="none" fill-rule="evenodd" stroke="none" stroke-linecap="round" stroke-linejoin="round" stroke-width="1"><rect width="48" height="48" fill="#fff" fill-opacity=".01"/><g id="编组" stroke="#000" stroke-width="4" transform="translate(24.000000, 24.000000) rotate(-45.000000) translate(-24.000000, -24.000000) translate(0.000000, 10.000000)"><ellipse id="椭圆形" cx="24" cy="14" rx="24" ry="14"/><path id="Path-20" d="M24,18 L24,10" transform="translate(24.000000, 14.000000) rotate(180.000000) translate(-24.000000, -14.000000)"/><path id="Path-20" d="M30,18 L30,10" transform="translate(30.000000, 14.000000) rotate(180.000000) translate(-30.000000, -14.000000)"/><path id="Path-20" d="M18,18 L18,10" transform="translate(18.000000, 14.000000) rotate(180.000000) translate(-18.000000, -14.000000)"/><path id="路径-12" d="M8,14.0083363 L40,14.0083363"/><path id="Path-20" d="M8,24 L8,4" transform="translate(8.000000, 14.000000) rotate(180.000000) translate(-8.000000, -14.000000)"/><path id="Path-20" d="M40,24 L40,4" transform="translate(40.000000, 14.000000) rotate(180.000000) translate(-40.000000, -14.000000)"/></g></g></svg>