<svg xmlns="http://www.w3.org/2000/svg" width="48" height="48" fill="none" viewBox="0 0 48 48"><rect width="48" height="48" fill="#fff" fill-opacity=".01"/><rect width="40" height="16" x="4" y="4" fill="#2F88FF" stroke="#000" stroke-linejoin="round" stroke-width="4" rx="8"/><rect width="40" height="16" x="4" y="28" fill="#2F88FF" stroke="#000" stroke-linejoin="round" stroke-width="4" rx="8"/><path fill="#43CCF8" stroke="#fff" stroke-linejoin="round" stroke-width="4" d="M36 14C37.1046 14 38 13.1046 38 12C38 10.8954 37.1046 10 36 10C34.8954 10 34 10.8954 34 12C34 13.1046 34.8954 14 36 14Z"/><path fill="#43CCF8" stroke="#fff" stroke-linejoin="round" stroke-width="4" d="M12 38C13.1046 38 14 37.1046 14 36C14 34.8954 13.1046 34 12 34C10.8954 34 10 34.8954 10 36C10 37.1046 10.8954 38 12 38Z"/></svg>