<svg xmlns="http://www.w3.org/2000/svg" width="48" height="48" fill="none" viewBox="0 0 48 48"><rect width="48" height="48" fill="#fff" fill-opacity=".01"/><path fill="#2F88FF" stroke="#000" stroke-linecap="round" stroke-linejoin="round" stroke-width="4" d="M38 21L43 30L38 31V37H35L29 36L28 43H13L11 32.619C7.92077 29.7028 6 25.5757 6 21C6 12.1634 13.1634 5 22 5C30.8366 5 38 12.1634 38 21Z"/><path stroke="#fff" stroke-linecap="round" stroke-linejoin="round" stroke-width="4" d="M17 19C17 16.2386 19.2386 14 22 14C24.7614 14 27 16.2386 27 19C27 21.7614 24.7614 24 22 24V27"/><path stroke="#fff" stroke-linecap="round" stroke-linejoin="round" stroke-width="4" d="M22 33V34"/></svg>