<svg xmlns="http://www.w3.org/2000/svg" xmlns:xlink="http://www.w3.org/1999/xlink" width="48" height="48" version="1.1" viewBox="0 0 48 48"><title>usb</title><desc>Created with Sketch.</desc><g id="usb" fill="none" fill-rule="evenodd" stroke="none" stroke-width="1"><g id="编组"><rect id="矩形" width="48" height="48" x="0" y="0" fill="#FFF" fill-opacity=".01"/><path id="Oval-8" fill="#2F88FF" fill-rule="nonzero" stroke="#000" stroke-linejoin="round" stroke-width="4" d="M12,22 C14.209139,22 16,20.209139 16,18 C16,15.790861 14.209139,14 12,14 C9.790861,14 8,15.790861 8,18 C8,20.209139 9.790861,22 12,22 Z"/><path id="Oval-8-Copy-3" fill="#2F88FF" fill-rule="nonzero" stroke="#000" stroke-linejoin="round" stroke-width="4" d="M36,28 C38.209139,28 40,26.209139 40,24 C40,21.790861 38.209139,20 36,20 C33.790861,20 32,21.790861 32,24 C32,26.209139 33.790861,28 36,28 Z"/><polyline id="Path-2" stroke="#000" stroke-linecap="round" stroke-linejoin="round" stroke-width="4" points="19 9 24 4 29 9"/><polyline id="Path-3" stroke="#000" stroke-linecap="round" stroke-linejoin="round" stroke-width="4" points="25 39 12 28.263 12 22"/><polyline id="Path-4" stroke="#000" stroke-linecap="round" stroke-linejoin="round" stroke-width="4" points="36 28 36 32.789 24 41"/><path id="Path-5" stroke="#000" stroke-linecap="round" stroke-linejoin="round" stroke-width="4" d="M24,4 L24,43"/><path id="路径-11" stroke="#000" stroke-linecap="round" stroke-linejoin="round" stroke-width="4" d="M21,44 L27,44"/></g></g></svg>