<svg xmlns="http://www.w3.org/2000/svg" width="48" height="48" fill="none" viewBox="0 0 48 48"><rect width="48" height="48" fill="#fff" fill-opacity=".01"/><path fill="#2F88FF" stroke="#000" stroke-linecap="round" stroke-linejoin="round" stroke-width="4" d="M9 29C11.7614 29 14 26.7614 14 24C14 26.7614 16.2386 29 19 29C21.7614 29 24 26.7614 24 24C24 26.7614 26.2386 29 29 29C31.7614 29 34 26.7614 34 24C34 26.7614 36.2386 29 39 29C41.7614 29 44 26.7614 44 24C44 35.0457 35.0457 44 24 44C12.9543 44 4 35.0457 4 24C4 26.7614 6.23858 29 9 29Z"/><path stroke="#000" stroke-linecap="round" stroke-linejoin="round" stroke-width="4" d="M19 5L29 15"/><path stroke="#000" stroke-linecap="round" stroke-linejoin="round" stroke-width="4" d="M29 5L19 15"/></svg>