<svg xmlns="http://www.w3.org/2000/svg" width="48" height="48" fill="none" viewBox="0 0 48 48"><rect width="48" height="48" fill="#fff" fill-opacity=".01"/><path fill="#2F88FF" stroke="#000" stroke-linejoin="round" stroke-width="4" d="M24 24C29.5228 24 34 19.5228 34 14C34 8.47715 29.5228 4 24 4V24Z"/><path fill="#2F88FF" stroke="#000" stroke-linejoin="round" stroke-width="4" d="M24 24C24 29.5228 28.4772 34 34 34C39.5228 34 44 29.5228 44 24H24Z"/><path fill="#2F88FF" stroke="#000" stroke-linejoin="round" stroke-width="4" d="M24 24C24 18.4772 19.5228 14 14 14C8.47715 14 4 18.4772 4 24H24Z"/><path fill="#2F88FF" stroke="#000" stroke-linejoin="round" stroke-width="4" d="M24 24C18.4772 24 14 28.4772 14 34C14 39.5228 18.4772 44 24 44V24Z"/></svg>