<svg xmlns="http://www.w3.org/2000/svg" width="48" height="48" fill="none" viewBox="0 0 48 48"><rect width="48" height="48" fill="#fff" fill-opacity=".01"/><path fill="#2F88FF" fill-rule="evenodd" d="M24 44C35.0457 44 44 35.0457 44 24C44 12.9543 35.0457 4 24 4C12.9543 4 4 12.9543 4 24C4 35.0457 12.9543 44 24 44Z" clip-rule="evenodd"/><path fill="#2F88FF" fill-rule="evenodd" d="M24 33C28.9706 33 33 28.9706 33 24C33 19.0294 28.9706 15 24 15C19.0294 15 15 19.0294 15 24C15 28.9706 19.0294 33 24 33Z" clip-rule="evenodd"/><path fill="#2F88FF" fill-rule="evenodd" d="M24 15H41.8654H24Z" clip-rule="evenodd"/><path fill="#2F88FF" fill-rule="evenodd" d="M17 42.7408L29.6439 31L17 42.7408Z" clip-rule="evenodd"/><path fill="#2F88FF" fill-rule="evenodd" d="M6 15.2717L16.8751 29.552L6 15.2717Z" clip-rule="evenodd"/><path stroke="#000" stroke-linecap="round" stroke-linejoin="round" stroke-width="4" d="M24 15C28.9706 15 33 19.0294 33 24C33 28.9706 28.9706 33 24 33C19.0294 33 15 28.9706 15 24C15 19.0294 19.0294 15 24 15ZM24 15H41.8654M17 42.7408L29.6439 31M6 15.2717L16.8751 29.552M24 44C35.0457 44 44 35.0457 44 24C44 12.9543 35.0457 4 24 4C12.9543 4 4 12.9543 4 24C4 35.0457 12.9543 44 24 44Z"/></svg>