<svg xmlns="http://www.w3.org/2000/svg" width="48" height="48" fill="none" viewBox="0 0 48 48"><rect width="48" height="48" fill="#fff" fill-opacity=".01"/><path fill="#2F88FF" fill-rule="evenodd" stroke="#000" stroke-linejoin="round" stroke-width="4" d="M24 43C24.8653 43 26.8503 43 29.9551 43C30.0381 40.2631 30.4393 38.7582 31.1586 38.4852C38.6685 35.6357 44 28.434 44 20H4C4 28.2514 9.10319 35.3234 16.3568 38.2941C17.1151 38.6047 17.6815 40.1733 18.056 43C21.0857 43 23.067 43 24 43Z" clip-rule="evenodd"/><path stroke="#fff" stroke-linecap="round" stroke-width="4" d="M14.4436 27.0225C14.8033 28.2103 15.2789 29.191 15.8704 29.9646C16.4487 30.7209 17.1621 31.4223 18.0107 32.0688"/><path stroke="#000" stroke-linecap="round" stroke-width="4" d="M25.2142 20.0264C28.97 12.2748 31.1773 7.70521 31.8361 6.31775C32.8854 4.10791 35.0159 3.57614 36.9811 4.41569C38.9462 5.25524 39.7414 7.65828 38.9165 9.33311C38.4071 10.3675 36.6769 13.9245 33.7261 20.004"/></svg>