<svg xmlns="http://www.w3.org/2000/svg" width="48" height="48" fill="none" viewBox="0 0 48 48"><rect width="48" height="48" fill="#fff" fill-opacity=".01"/><path fill-rule="evenodd" stroke="#000" stroke-linecap="round" stroke-linejoin="round" stroke-width="4" d="M17.9821 11.9689L31.7847 4L36.3971 11.9889L17.9821 11.9689Z" clip-rule="evenodd"/><path fill="#2F88FF" stroke="#000" stroke-linejoin="round" stroke-width="4" d="M4 14C4 12.8954 4.89543 12 6 12H42C43.1046 12 44 12.8954 44 14V42C44 43.1046 43.1046 44 42 44H6C4.89543 44 4 43.1046 4 42V14Z"/><path fill="#43CCF8" stroke="#fff" stroke-linejoin="round" stroke-width="4" d="M35.25 33H44V23H35.25C32.3505 23 30 25.2386 30 28C30 30.7614 32.3505 33 35.25 33Z"/><path stroke="#000" stroke-linecap="round" stroke-width="4" d="M44 16.5V40.5"/></svg>