<svg xmlns="http://www.w3.org/2000/svg" width="48" height="48" fill="none" viewBox="0 0 48 48"><rect width="48" height="48" fill="#fff" fill-opacity=".01"/><path fill="#2F88FF" d="M42 39C42 41.7614 33.9411 44 24 44C14.0589 44 6 41.7614 6 39C6 38.5107 6.25301 38.0378 6.72466 37.5909C8.91494 35.5156 15.8203 34 24 34C32.1797 34 39.0851 35.5156 41.2753 37.5909C41.747 38.0378 42 38.5107 42 39Z"/><path stroke="#000" stroke-linecap="round" stroke-linejoin="round" stroke-width="4" d="M42 39C42 41.7614 33.9411 44 24 44C14.0589 44 6 41.7614 6 39M42 39L41.2753 37.5909M42 39C42 38.5107 41.747 38.0378 41.2753 37.5909M6 39L6.72466 37.5909M6 39C6 38.5107 6.25301 38.0378 6.72466 37.5909M6.72466 37.5909C8.91494 35.5156 15.8203 34 24 34C32.1797 34 39.0851 35.5156 41.2753 37.5909"/><path stroke="#000" stroke-linecap="round" stroke-linejoin="round" stroke-width="4" d="M6.72461 37.5909L23.9999 4L41.2753 37.5909"/></svg>