<svg xmlns="http://www.w3.org/2000/svg" width="48" height="48" fill="none" viewBox="0 0 48 48"><rect width="48" height="48" fill="#fff" fill-opacity=".01"/><path fill-rule="evenodd" stroke="#000" stroke-linecap="round" stroke-linejoin="round" stroke-width="4" d="M24 24L34 14C34 8.47715 29.5228 4 24 4C18.4772 4 14 8.47715 14 14L24 24Z" clip-rule="evenodd"/><path fill-rule="evenodd" stroke="#000" stroke-linecap="round" stroke-linejoin="round" stroke-width="4" d="M14 34L24 24L14 14C8.47715 14 4 18.4772 4 24C4 29.5228 8.47715 34 14 34Z" clip-rule="evenodd"/><path fill-rule="evenodd" stroke="#000" stroke-linecap="round" stroke-linejoin="round" stroke-width="4" d="M34 34C39.5228 34 44 29.5228 44 24C44 18.4772 39.5228 14 34 14L24 24L34 34Z" clip-rule="evenodd"/><path fill-rule="evenodd" stroke="#000" stroke-linecap="round" stroke-linejoin="round" stroke-width="4" d="M24 44C29.5228 44 34 39.5228 34 34L24 24L14 34C14 39.5228 18.4772 44 24 44Z" clip-rule="evenodd"/></svg>