<svg xmlns="http://www.w3.org/2000/svg" width="48" height="48" fill="none" viewBox="0 0 48 48"><rect width="48" height="48" fill="#fff" fill-opacity=".01"/><path fill="#2F88FF" d="M29.5164 17.5002C35.0393 27.066 34.4759 37.7308 28.2581 41.3207C22.0403 44.9105 12.5226 40.066 6.99976 30.5002C1.47691 20.9343 2.04029 10.2695 8.25809 6.67968C14.4759 3.08983 23.9936 7.93434 29.5164 17.5002Z"/><path fill="#2F88FF" d="M18.258 17.5002C12.7352 27.066 13.2985 37.7308 19.5163 41.3207C25.7341 44.9105 35.2518 40.066 40.7747 30.5002C46.2975 20.9343 45.7341 10.2695 39.5163 6.67968C33.2985 3.08983 23.7808 7.93434 18.258 17.5002Z"/><path stroke="#000" stroke-linecap="round" stroke-linejoin="round" stroke-width="4" d="M29.5164 17.5002C35.0393 27.066 34.4759 37.7308 28.2581 41.3207C22.0403 44.9105 12.5226 40.066 6.99976 30.5002C1.47691 20.9343 2.04029 10.2695 8.25809 6.67968C14.4759 3.08983 23.9936 7.93434 29.5164 17.5002Z"/><path stroke="#000" stroke-linecap="round" stroke-linejoin="round" stroke-width="4" d="M18.258 17.5002C12.7352 27.066 13.2985 37.7308 19.5163 41.3207C25.7341 44.9105 35.2518 40.066 40.7747 30.5002C46.2975 20.9343 45.7341 10.2695 39.5163 6.67968C33.2985 3.08983 23.7808 7.93434 18.258 17.5002Z"/></svg>