<svg xmlns="http://www.w3.org/2000/svg" width="48" height="48" fill="none" viewBox="0 0 48 48"><rect width="48" height="48" fill="#fff" fill-opacity=".01"/><path fill="#2F88FF" d="M14 9L24 3L34 9V21L24 27L14 21V9Z"/><path fill="#2F88FF" d="M4 27L14 21L24 27V39L14 45L4 39V27Z"/><path fill="#2F88FF" d="M24 27L34 21L44 27V39L34 45L24 39V27Z"/><path stroke="#000" stroke-linecap="round" stroke-linejoin="round" stroke-width="4" d="M14 21V9L24 3L34 9V21M14 21L24 27M14 21L4 27V39L14 45L24 39M24 27L34 21M24 27V39M34 21L44 27V39L34 45L24 39"/></svg>