<svg xmlns="http://www.w3.org/2000/svg" width="48" height="48" fill="none" viewBox="0 0 48 48"><rect width="48" height="48" fill="#fff" fill-opacity=".01"/><path stroke="#000" stroke-linecap="round" stroke-linejoin="round" stroke-width="4" d="M5 42H10"/><path stroke="#000" stroke-linecap="round" stroke-linejoin="round" stroke-width="4" d="M5 36H10"/><path stroke="#000" stroke-linecap="round" stroke-linejoin="round" stroke-width="4" d="M5 30H10"/><path stroke="#000" stroke-linecap="round" stroke-linejoin="round" stroke-width="4" d="M5 24H10"/><path stroke="#000" stroke-linecap="round" stroke-linejoin="round" stroke-width="4" d="M16 42H21"/><path stroke="#000" stroke-linecap="round" stroke-linejoin="round" stroke-width="4" d="M16 36H21"/><path stroke="#000" stroke-linecap="round" stroke-linejoin="round" stroke-width="4" d="M16 30H21"/><path stroke="#000" stroke-linecap="round" stroke-linejoin="round" stroke-width="4" d="M16 24H21"/><path stroke="#000" stroke-linecap="round" stroke-linejoin="round" stroke-width="4" d="M16 18H21"/><path stroke="#000" stroke-linecap="round" stroke-linejoin="round" stroke-width="4" d="M16 12H21"/><path stroke="#000" stroke-linecap="round" stroke-linejoin="round" stroke-width="4" d="M16 6H21"/><path stroke="#000" stroke-linecap="round" stroke-linejoin="round" stroke-width="4" d="M27 42H32"/><path stroke="#000" stroke-linecap="round" stroke-linejoin="round" stroke-width="4" d="M38 42H43"/><path stroke="#000" stroke-linecap="round" stroke-linejoin="round" stroke-width="4" d="M27 36H32"/><path stroke="#000" stroke-linecap="round" stroke-linejoin="round" stroke-width="4" d="M38 36H43"/><path stroke="#000" stroke-linecap="round" stroke-linejoin="round" stroke-width="4" d="M27 30H32"/><path stroke="#000" stroke-linecap="round" stroke-linejoin="round" stroke-width="4" d="M38 30H43"/><path stroke="#000" stroke-linecap="round" stroke-linejoin="round" stroke-width="4" d="M38 24H43"/><path stroke="#000" stroke-linecap="round" stroke-linejoin="round" stroke-width="4" d="M38 18H43"/></svg>